# xmcd
#
# Track frame offsets:
#	150
#	6350
#	22909
#	41113
#	49764
#	60303
#	72016
#	82062
#	95135
#	103941
#	114844
#	128648
#	140716
#	148269
#	160449
#	175234
#	189256
#	200851
#	215025
#	227612
#	236480
#	252632
#	268227
#	283683
#	296322
#	313416
#	323260
#	342101
#
# Disc length: 4698 seconds
#
# Revision: 1
# Processed by: cddbd v1.5.2PL0 Copyright (c) Steve Scherf et al.
# Submitted via: audiograbber 1.83.01
#
DISCID=ae12581c
DTITLE=David Allan Coe - Underground
DYEAR=1900
DGENRE=Underground Country
TTITLE0=How Wet Tight Bald Pussy
TTITLE1=Itty Bitty Titties
TTITLE2=Marijuanaville
TTITLE3=Dear Penis
TTITLE4=Don't Bite The dick
TTITLE5=Drunk
TTITLE6=I Wanna Fuck You IN The Butt
TTITLE7=Little Suzie Shallow Throat
TTITLE8=Move Them Niggers North
TTITLE9=My Wife Ran Off With A Nigger
TTITLE10=Some Niggers Never Die
TTITLE11=You Can Count On Beer
TTITLE12=No Niggers In Ourt Schools
TTITLE13=Devil Went down To Jamica
TTITLE14=Asshole Song
TTITLE15=Beer Is Good For You
TTITLE16=Cocaine Carolina
TTITLE17=Just Wanna Fuck You One More Time
TTITLE18=Learn How To Fuck
TTITLE19=The Rodeo Song
TTITLE20=Pussy Whipped Again
TTITLE21=Cum Stains On The Pillow
TTITLE22=Linda Lovelace
TTITLE23=Fuck Anita Bryant
TTITLE24=Jimmy Buffett
TTITLE25=3 Biggest Lies
TTITLE26=Whips and Things
TTITLE27=Rails
EXTD=
EXTT0=
EXTT1=
EXTT2=
EXTT3=
EXTT4=
EXTT5=
EXTT6=
EXTT7=
EXTT8=
EXTT9=
EXTT10=
EXTT11=
EXTT12=
EXTT13=
EXTT14=
EXTT15=
EXTT16=
EXTT17=
EXTT18=
EXTT19=
EXTT20=
EXTT21=
EXTT22=
EXTT23=
EXTT24=
EXTT25=
EXTT26=
EXTT27=
PLAYORDER=
